# xmcd
#
# Track frame offsets:
#	150
#	18781
#	36579
#	56219
#	73197
#	95980
#	116092
#	140613
#	180412
#	200135
#	222743
#	245644
#
# Disc length: 3532 seconds
#
# Revision: 0
# Processed by: cddbd v1.5.1PL0 Copyright (c) Steve Scherf et al.
# Submitted via: EasyCDDAExtractor 8.0.2.1
#
DISCID=c90dca0c
DTITLE=Various Artist - Only Hits Vol 3 Ballads
DYEAR=2002
DGENRE=Pop
TTITLE0=Simply Red - Holding back the years
TTITLE1=The Cars - Drive
TTITLE2=Peter Cetera - The glory of love
TTITLE3=A- Ha - Hunting high and low
TTITLE4=Foreigner - I want to know what love is
TTITLE5=Benjamin Orr - Stay the night
TTITLE6=Ambrosia - Biggest part of me
TTITLE7=David Gates - Clouds suite
TTITLE8=Gary Wright - Really wanna know you
TTITLE9=Michael Sembello - It's over
TTITLE10=Robert Plant - Bog log
TTITLE11=Collective Soul - The world I know
EXTD=
EXTT0=
EXTT1=
EXTT2=
EXTT3=
EXTT4=
EXTT5=
EXTT6=
EXTT7=
EXTT8=
EXTT9=
EXTT10=
EXTT11=
PLAYORDER=
